<?xml version="1.0" encoding="UTF-8" standalone="no"?>
<svg
   xmlns:dc="http://purl.org/dc/elements/1.1/"
   xmlns:cc="http://creativecommons.org/ns#"
   xmlns:rdf="http://www.w3.org/1999/02/22-rdf-syntax-ns#"
   xmlns:svg="http://www.w3.org/2000/svg"
   xmlns="http://www.w3.org/2000/svg"
   xmlns:sodipodi="http://sodipodi.sourceforge.net/DTD/sodipodi-0.dtd"
   xmlns:inkscape="http://www.inkscape.org/namespaces/inkscape"
   width="40"
   height="40"
   viewBox="0 0 40 40"
   id="svg2"
   version="1.1"
   inkscape:version="0.91 r13725"
   sodipodi:docname="dinner.svg">
  <metadata
     id="metadata10">
    <rdf:RDF>
      <cc:Work
         rdf:about="">
        <dc:format>image/svg+xml</dc:format>
        <dc:type
           rdf:resource="http://purl.org/dc/dcmitype/StillImage" />
        <dc:title></dc:title>
      </cc:Work>
    </rdf:RDF>
  </metadata>
  <defs
     id="defs8" />
  <sodipodi:namedview
     pagecolor="#ffffff"
     bordercolor="#666666"
     borderopacity="1"
     objecttolerance="10"
     gridtolerance="10"
     guidetolerance="10"
     inkscape:pageopacity="0"
     inkscape:pageshadow="2"
     inkscape:window-width="1600"
     inkscape:window-height="1137"
     id="namedview6"
     showgrid="false"
     fit-margin-top="0"
     fit-margin-left="0"
     fit-margin-right="0"
     fit-margin-bottom="0"
     inkscape:zoom="9.0769231"
     inkscape:cx="20.796081"
     inkscape:cy="17.993652"
     inkscape:window-x="-8"
     inkscape:window-y="-8"
     inkscape:window-maximized="1"
     inkscape:current-layer="svg2" />
  <rect
     style="opacity:1;fill:#f44336;fill-opacity:1;stroke:none;stroke-width:2;stroke-linecap:butt;stroke-linejoin:miter;stroke-miterlimit:4;stroke-dasharray:none;stroke-dashoffset:0;stroke-opacity:1"
     id="rect3340"
     width="40"
     height="40"
     x="0"
     y="0" />
  <path
     d="m 15.827331,4.8813562 c -0.324,0 -0.598,0.030508 -0.875,0.03632 l 0,6.7917658 c -0.002,0.382372 -0.30925,0.691234 -0.65625,0.690072 -0.347,0 -0.625,-0.308862 -0.625,-0.690072 l 0,-6.7554466 c -1.022,0.079031 -1.53125,0.2179176 -1.53125,0.2179176 0,0 -0.248,5.373268 -0.25,8.462468 0,3.446003 2.875,3.473025 2.875,4.830507 -0.002,1.353994 -0.875,6.959126 -0.875,10.133169 0,5.814623 1.04125,6.282129 1.90625,6.283291 0.865,0.0023 1.9395,-0.468668 1.9375,-6.283291 0.002,-3.171719 -0.90625,-8.778012 -0.90625,-10.133169 -0.002,-1.357482 2.873,-1.33569 2.875,-4.830507 0,-2.030411 -0.25,-8.462468 -0.25,-8.462468 0,0 -0.48725,-0.1400484 -1.53125,-0.2179176 l 0,6.8280856 c 0,0.383535 -0.278,0.692397 -0.625,0.690072 -0.348,0 -0.65625,-0.306537 -0.65625,-0.690072 l 0,-6.8644052 c -0.256,-0.00814 -0.5205,-0.033995 -0.8125,-0.03632 z m 8.09375,0.1452784 0,7.4455184 c 0,3.34489 -0.251,4.984212 -0.25,6.464889 0,1.483002 -0.8125,5.759418 -0.8125,9.225179 10e-4,6.359708 0.8685,6.716802 1.9375,6.719127 1.073,0 1.9375,-0.359419 1.9375,-6.719127 -0.002,-3.464599 -1,-4.801451 -1,-6.283291 -0.002,-2.51506 2.996,-3.481161 3,-7.30024 -0.002,-2.218692 0.4425,-9.5520554 -4.8125,-9.5520554 z"
     id="path4"
     inkscape:connector-curvature="0"
     style="fill:#ffffff" />
</svg>
